<svg version="1.1" id="Layer_1" xmlns="http://www.w3.org/2000/svg" xmlns:xlink="http://www.w3.org/1999/xlink" x="0px" y="0px"
	 width="100%" viewBox="0 0 496 496" enable-background="new 0 0 496 496" xml:space="preserve">
<path fill="#000000" opacity="1.000000" stroke="none" 
	d="
M186.999893,167.869034 
	C194.649582,168.124756 201.813019,167.380768 208.957504,168.412964 
	C225.838791,170.851868 233.041183,177.068710 236.631668,193.781158 
	C239.382187,206.583801 239.135773,219.595490 236.901535,232.483551 
	C236.047867,237.407959 234.166428,242.102524 230.955078,246.094757 
	C229.459793,247.953659 228.783630,249.609634 230.659286,251.804626 
	C236.184723,258.270844 238.586304,266.149323 239.030365,274.368256 
	C239.703278,286.822662 240.063599,299.340088 237.245102,311.667236 
	C233.848663,326.522186 224.433136,334.854980 209.201080,335.350342 
	C177.560608,336.379272 145.903351,336.316864 114.261711,335.352203 
	C104.331963,335.049500 97.674942,327.618347 97.666908,317.720551 
	C97.631050,273.562103 97.632378,229.403549 97.676521,185.245117 
	C97.686722,175.041214 106.003639,167.919952 118.013275,167.881241 
	C140.841934,167.807663 163.671021,167.865875 186.999893,167.869034 
M132.853363,304.659882 
	C154.337784,304.659790 175.822250,304.684296 197.306610,304.646912 
	C205.322037,304.632965 208.132889,302.011444 208.583298,293.988892 
	C208.816345,289.837799 208.661697,285.663940 208.651962,281.500397 
	C208.624466,269.735931 205.682022,266.713928 193.954910,266.426514 
	C191.624619,266.369385 189.291855,266.411346 186.960220,266.410675 
	C177.300568,266.407867 167.640244,266.474884 157.981537,266.378479 
	C152.157013,266.320343 149.790817,263.920074 149.674423,258.193848 
	C149.589844,254.031891 149.636154,249.866806 149.657257,245.703262 
	C149.696136,238.029663 152.055099,235.700348 159.876907,235.683472 
	C172.034698,235.657242 184.192795,235.714371 196.350327,235.651657 
	C204.681610,235.608673 207.929733,232.737061 208.509094,224.464539 
	C208.845459,219.661667 208.867081,214.782333 208.432526,209.991638 
	C207.618484,201.017593 205.455307,199.167786 196.392395,199.144760 
	C175.740875,199.092285 155.087799,199.260620 134.438400,199.046448 
	C129.701752,198.997314 128.114395,200.328735 128.155869,205.221664 
	C128.366211,230.035095 128.227554,254.851425 128.223434,279.666748 
	C128.222305,286.495056 128.302399,293.323547 128.265152,300.151520 
	C128.250931,302.760620 128.578217,304.907196 132.853363,304.659882 
z"/>
<path fill="#000000" opacity="1.000000" stroke="none" 
	d="
M357.000000,235.089020 
	C371.988068,235.326065 386.489716,234.549057 400.965027,235.548813 
	C407.027496,235.967514 409.274719,238.296890 409.296326,244.426682 
	C409.370911,265.585175 409.483826,286.747162 409.157318,307.901276 
	C409.055359,314.507385 407.909241,321.166077 404.654968,327.179047 
	C401.071228,333.800873 395.693634,338.046570 388.047424,338.320282 
	C360.411591,339.309570 332.737762,339.858002 305.142334,338.070465 
	C282.939545,336.632202 269.334076,322.533478 265.638397,299.826447 
	C262.726074,281.932800 263.910767,263.945862 263.702637,245.989594 
	C263.559998,233.682907 263.274780,221.363739 265.445709,209.140030 
	C270.421539,181.123123 283.143402,169.058029 311.951965,168.171417 
	C341.746429,167.254471 371.589996,167.868729 401.411652,167.954971 
	C407.344574,167.972122 409.281250,170.288849 409.355804,176.373032 
	C409.417053,181.370483 409.437103,186.370193 409.359955,191.367126 
	C409.262909,197.653320 407.571869,199.330032 401.246307,199.337662 
	C374.089417,199.370377 346.932434,199.347717 319.775513,199.370071 
	C300.920715,199.385590 296.089447,203.207153 295.459778,223.769363 
	C294.843048,243.909515 295.353516,264.083771 295.336823,284.243073 
	C295.333740,287.938782 296.042633,291.529816 296.951111,295.056549 
	C298.954041,302.832031 303.161804,306.549377 311.116394,306.646698 
	C331.772278,306.899475 352.432648,306.763702 373.090485,306.899323 
	C377.458557,306.928009 379.345642,304.265717 379.455200,300.737518 
	C379.775635,290.418732 379.635437,280.084930 379.626129,269.757050 
	C379.623291,266.600586 377.419891,266.664215 375.079681,266.685486 
	C361.253601,266.811188 347.426819,266.897797 333.600220,266.911041 
	C324.597137,266.919678 322.737396,265.016144 322.685852,256.090729 
	C322.664673,252.425522 322.647491,248.759552 322.695801,245.094818 
	C322.796539,237.453339 324.782471,235.317688 332.511047,235.149475 
	C340.504028,234.975525 348.503418,235.096436 357.000000,235.089020 
z"/>
</svg>